<svg xmlns="http://www.w3.org/2000/svg" version="1.1" xmlns:xlink="http://www.w3.org/1999/xlink" xmlns:svgjs="http://svgjs.dev/svgjs" width="2000" height="510" viewBox="0 0 2000 510"><g transform="matrix(1,0,0,1,-1.2121027974907292,-0.572359851600595)"><svg viewBox="0 0 396 101" data-background-color="#ffffff" preserveAspectRatio="xMidYMid meet" height="510" width="2000" xmlns="http://www.w3.org/2000/svg" xmlns:xlink="http://www.w3.org/1999/xlink"><g id="tight-bounds" transform="matrix(1,0,0,1,0.23999635390316598,0.1133496961012952)"><svg viewBox="0 0 395.52 100.77330060779744" height="100.77330060779744" width="395.52"><g><svg viewBox="0 0 395.52 100.77330060779744" height="100.77330060779744" width="395.52"><g transform="matrix(1,0,0,1,0,62.2819425999331)"><svg viewBox="0 0 395.52 38.491358007864335" height="38.491358007864335" width="395.52"><g><svg viewBox="0 0 395.52 38.491358007864335" height="38.491358007864335" width="395.52"><g><svg viewBox="0 0 395.52 38.491358007864335" height="38.491358007864335" width="395.52"><g transform="matrix(1,0,0,1,0,0)"><svg width="395.52" viewBox="2.829648971557617 -35.38999938964844 368.29034423828125 35.85068893432617" height="38.491358007864335" data-palette-color="#4f46e5"><path d="M18.81-30.28L18.81-30.28Q13.32-30.28 10.15-26.62 6.98-22.95 6.98-16.52 6.98-10.09 10.04-6.53 13.09-2.98 18.76-2.98L18.76-2.98Q22.3-2.98 26.72-4.22L26.72-4.22 26.72-0.83Q23.26 0.46 18.17 0.46L18.17 0.46Q10.82 0.46 6.83-3.99L6.83-3.99Q2.83-8.49 2.83-16.68L2.83-16.68Q2.81-20.48 3.93-23.67 5.06-26.87 7.13-29.1 9.2-31.32 12.21-32.55 15.22-33.77 18.86-33.75L18.86-33.75Q24.14-33.75 28.01-31.83L28.01-31.83 26.37-28.51Q22.65-30.28 18.81-30.28ZM35.07-21.99Q38.14-25.38 43.45-25.38 48.76-25.38 51.84-21.9 54.93-18.43 54.93-12.42 54.93-6.42 51.84-2.96L51.84-2.96Q48.76 0.46 43.37 0.46L43.37 0.46Q38.29 0.51 35.11-3.06 31.92-6.62 32-12.49L32-12.49Q32-18.6 35.07-21.99ZM43.4-22.17L43.4-22.17Q35.92-22.17 35.92-12.49L35.92-12.49Q35.92-7.71 37.83-5.21 39.73-2.7 43.45-2.7 47.17-2.7 49.09-5.19 51.01-7.68 51.01-12.47 51.01-17.26 49.09-19.72 47.17-22.17 43.4-22.17ZM82.38-16.25L82.38 0 78.58 0 78.58-16.13Q78.58-19.21 77.19-20.69 75.8-22.17 72.87-22.17L72.87-22.17Q68.95-22.17 67.13-20.06 65.31-17.95 65.31-13.07L65.31-13.07 65.31 0 61.52 0 61.52-24.92 64.61-24.92 65.21-21.51 65.39-21.51Q66.55-23.33 68.65-24.36 70.75-25.38 73.33-25.38L73.33-25.38Q77.88-25.38 80.13-23.18 82.38-20.98 82.38-16.25L82.38-16.25ZM109.45-24.92L99.99 0 95.57 0 86.11-24.92 90.16-24.92 95.54-10.14Q97.36-4.9 97.67-3.41L97.67-3.41 97.84-3.41Q98.12-4.65 99.27-7.94 100.42-11.22 105.4-24.92L105.4-24.92 109.45-24.92ZM123.98 0.46L123.98 0.46Q118.44 0.46 115.23-2.91L115.23-2.91Q112.05-6.27 112.05-12.29 112.05-18.3 115.01-21.84L115.01-21.84Q118.01-25.38 122.85-25.38 127.69-25.38 130.42-22.3 133.15-19.21 133.15-14.18L133.15-14.18 133.15-11.78 115.97-11.78Q116.09-7.41 118.19-5.12 120.29-2.83 124.24-2.83 128.2-2.83 132.07-4.52L132.07-4.52 132.07-1.16Q130.12-0.3 128.3 0.08 126.48 0.46 123.98 0.46ZM116.07-14.86L129.11-14.86Q129.11-18.43 127.52-20.32 125.93-22.22 122.96-22.22 119.98-22.22 118.18-20.27 116.37-18.33 116.07-14.86L116.07-14.86ZM160.43-16.25L160.43 0 156.64 0 156.64-16.13Q156.64-19.21 155.25-20.69 153.86-22.17 150.92-22.17L150.92-22.17Q147-22.17 145.18-20.06 143.36-17.95 143.36-13.07L143.36-13.07 143.36 0 139.57 0 139.57-24.92 142.66-24.92 143.26-21.51 143.44-21.51Q144.6-23.33 146.7-24.36 148.8-25.38 151.38-25.38L151.38-25.38Q155.93-25.38 158.18-23.18 160.43-20.98 160.43-16.25L160.43-16.25ZM172.23-21.99L172.23-7.33Q172.23-5.08 173.28-3.87 174.33-2.65 176.16-2.65 177.99-2.65 179.64-3.11L179.64-3.11 179.64-0.23Q179.05 0.05 177.8 0.25 176.55 0.46 175.67 0.46L175.67 0.46Q168.44 0.46 168.44-7.15L168.44-7.15 168.44-21.99 164.87-21.99 164.87-23.81 168.44-25.38 170.03-30.71 172.23-30.71 172.23-24.92 179.46-24.92 179.46-21.99 172.23-21.99ZM188.13-29.82Q187.5-29.17 186.51-29.17 185.52-29.17 184.92-29.82 184.31-30.46 184.31-31.7 184.31-32.94 184.92-33.57 185.52-34.2 186.51-34.2 187.5-34.2 188.13-33.56 188.76-32.91 188.76-31.69 188.76-30.46 188.13-29.82ZM184.61-24.92L188.41-24.92 188.41 0 184.61 0 184.61-24.92ZM198.07-21.99Q201.14-25.38 206.45-25.38 211.76-25.38 214.84-21.9 217.93-18.43 217.93-12.42 217.93-6.42 214.84-2.96L214.84-2.96Q211.76 0.46 206.38 0.46L206.38 0.46Q201.29 0.51 198.11-3.06 194.92-6.62 195-12.49L195-12.49Q195-18.6 198.07-21.99ZM206.4-22.17L206.4-22.17Q198.92-22.17 198.92-12.49L198.92-12.49Q198.92-7.71 200.83-5.21 202.74-2.7 206.45-2.7 210.17-2.7 212.09-5.19 214.01-7.68 214.01-12.47 214.01-17.26 212.09-19.72 210.17-22.17 206.4-22.17ZM245.38-16.25L245.38 0 241.59 0 241.59-16.13Q241.59-19.21 240.19-20.69 238.8-22.17 235.87-22.17L235.87-22.17Q231.95-22.17 230.13-20.06 228.31-17.95 228.31-13.07L228.31-13.07 228.31 0 224.52 0 224.52-24.92 227.61-24.92 228.21-21.51 228.39-21.51Q229.55-23.33 231.65-24.36 233.75-25.38 236.33-25.38L236.33-25.38Q240.88-25.38 243.13-23.18 245.38-20.98 245.38-16.25L245.38-16.25ZM267.92-30.28L267.92-30.28Q262.44-30.28 259.26-26.62 256.09-22.95 256.09-16.52 256.09-10.09 259.15-6.53 262.21-2.98 267.87-2.98L267.87-2.98Q271.41-2.98 275.83-4.22L275.83-4.22 275.83-0.83Q272.37 0.46 267.29 0.46L267.29 0.46Q259.93 0.46 255.94-3.99L255.94-3.99Q251.95-8.49 251.95-16.68L251.95-16.68Q251.92-20.48 253.05-23.67 254.17-26.87 256.24-29.1 258.32-31.32 261.32-32.55 264.33-33.77 267.97-33.75L267.97-33.75Q273.26-33.75 277.12-31.83L277.12-31.83 275.48-28.51Q271.76-30.28 267.92-30.28ZM284.6-6.85L284.6-6.85Q284.6-4.83 285.84-3.74 287.08-2.65 289.31-2.65L289.31-2.65Q292.87-2.65 294.87-4.59 296.86-6.52 296.86-10.01L296.86-10.01 296.86-12.26 293.1-12.11Q288.6-11.93 286.6-10.69 284.6-9.45 284.6-6.85ZM300.66-17.01L300.66 0 297.85 0 297.09-3.54 296.91-3.54Q295.04-1.21 293.2-0.38 291.35 0.46 288.57 0.46L288.57 0.46Q284.83 0.46 282.75-1.47 280.66-3.39 280.66-6.9L280.66-6.9Q280.66-14.43 292.72-14.81L292.72-14.81 296.96-14.94 296.96-16.48Q296.96-19.46 295.7-20.84 294.44-22.22 291.49-22.22 288.55-22.22 284.6-20.32L284.6-20.32 283.44-23.21Q287.38-25.35 291.88-25.35 296.38-25.35 298.52-23.36 300.66-21.36 300.66-17.01L300.66-17.01ZM319.79-25.38L319.79-25.38Q321.51-25.38 322.77-25.13L322.77-25.13 322.27-21.61Q320.77-21.94 319.54-21.94L319.54-21.94Q316.5-21.94 314.35-19.49 312.2-17.04 312.2-13.37L312.2-13.37 312.2 0 308.41 0 308.41-24.92 311.55-24.92 311.98-20.32 312.15-20.32Q313.54-22.78 315.5-24.08 317.46-25.38 319.79-25.38ZM330.78-19.65Q329.01-17.09 329.01-12.34 329.01-7.58 330.77-5.14 332.53-2.7 335.91-2.7L335.91-2.7Q339.78-2.7 341.52-4.82 343.27-6.93 343.27-11.6L343.27-11.6 343.27-12.39Q343.27-17.72 341.5-19.97 339.73-22.22 335.86-22.22L335.86-22.22Q332.55-22.22 330.78-19.65ZM343.27-3.34Q340.64 0.46 335.6 0.46 330.55 0.46 327.82-2.88L327.82-2.88Q325.09-6.27 325.09-12.41 325.09-18.55 327.82-21.97 330.55-25.38 335.55-25.38 340.54-25.38 343.22-21.71L343.22-21.71 343.52-21.71 343.34-23.51 343.27-25.25 343.27-35.39 347.04-35.39 347.04 0 343.98 0 343.47-3.34 343.27-3.34ZM371.12-6.8L371.12-6.8Q371.12-3.31 368.53-1.43 365.94 0.46 361.11 0.46 356.28 0.46 353.5-1.11L353.5-1.11 353.5-4.63Q357.4-2.65 361.34-2.65L361.34-2.65Q367.48-2.65 367.48-6.47L367.48-6.47Q367.48-7.94 366.19-8.99 364.9-10.04 361.39-11.36 357.88-12.69 356.34-13.68L356.34-13.68Q353.43-15.65 353.43-18.76 353.43-21.87 355.91-23.62 358.38-25.38 362.59-25.38 366.8-25.38 370.59-23.76L370.59-23.76 369.25-20.68Q365.54-22.22 362.67-22.22 359.8-22.22 358.42-21.4 357.04-20.58 357.04-19.06L357.04-19.06Q357.04-18.1 357.54-17.38 358.03-16.66 359.17-16.01 360.3-15.37 363.56-14.18L363.56-14.18Q368.01-12.54 369.57-10.91 371.12-9.28 371.12-6.8Z" opacity="1" transform="matrix(1,0,0,1,0,0)" fill="#4f46e5" class="undefined-text-0" data-fill-palette-color="primary" id="text-0"></path></svg></g></svg></g></svg></g></svg></g><g transform="matrix(1,0,0,1,167.5192004514817,0)"><svg viewBox="0 0 60.48159909703654 53.19505676686852" height="53.19505676686852" width="60.48159909703654"><g><svg xmlns="http://www.w3.org/2000/svg" xmlns:xlink="http://www.w3.org/1999/xlink" version="1.1" x="8" y="0" viewBox="12 3.0169999599456787 76.91600036621094 91.98300170898438" enable-background="new 0 0 100 100" xml:space="preserve" height="53.19505676686852" width="44.48159909703654" class="icon-icon-0" data-fill-palette-color="accent" id="icon-0"><path d="M53.644 18.966L12 25.106 41.048 95h45.5L53.644 18.966zM53.644 64.781c0 0-2.057 4.113-6.169 1.286 0 0-14.911-8.484-16.967-14.396 0 0-3.995-9.279 4.627-10.024 0 0 3.341 0.256 5.913 2.825 0 0 1.285-6.684 10.282-3.341 8.997 3.341 6.94 14.91 5.397 16.967L53.644 64.781z" fill="#4f46e5" data-fill-palette-color="accent"></path><polygon fill="#4f46e5" points="54.728,17.098 80.644,76.982 88.916,73.709 58.327,3.017 13.369,23.196 " data-fill-palette-color="accent"></polygon></svg></g></svg></g><g><rect width="167.5192004514817" height="3.4711903882306703" y="48.72386637863785" x="228.00079954851824" fill="#4f46e5" data-fill-palette-color="accent"></rect><rect width="167.5192004514817" height="3.4711903882306703" y="48.72386637863785" x="0" fill="#4f46e5" data-fill-palette-color="accent"></rect><rect width="167.5192004514817" height="3.4711903882306703" y="41.78148560217651" x="228.00079954851824" fill="#4f46e5" data-fill-palette-color="accent"></rect><rect width="167.5192004514817" height="3.4711903882306703" y="41.78148560217651" x="0" fill="#4f46e5" data-fill-palette-color="accent"></rect></g></svg></g><defs></defs></svg><rect width="395.52" height="100.77330060779744" fill="none" stroke="none" visibility="hidden"></rect></g></svg></g></svg>