<?xml version="1.0" standalone="no"?>
<!DOCTYPE svg PUBLIC "-//W3C//DTD SVG 20010904//EN"
 "http://www.w3.org/TR/2001/REC-SVG-20010904/DTD/svg10.dtd">
<svg version="1.0" xmlns="http://www.w3.org/2000/svg"
 width="700.000000pt" height="700.000000pt" viewBox="0 0 700.000000 700.000000"
 preserveAspectRatio="xMidYMid meet">
<metadata>
Created by potrace 1.14, written by Peter Selinger 2001-2017
</metadata>
<g transform="translate(0.000000,700.000000) scale(0.100000,-0.100000)"
fill="#000000" stroke="none">
<path d="M4015 6820 c-22 -11 -65 -30 -96 -44 -31 -13 -231 -103 -445 -199
-214 -96 -567 -254 -784 -352 -217 -97 -428 -192 -468 -211 -41 -19 -75 -34
-77 -34 -2 0 -32 -13 -67 -29 -35 -16 -83 -38 -108 -49 -25 -11 -92 -41 -150
-67 -58 -26 -148 -67 -200 -90 -149 -67 -468 -210 -545 -245 -115 -52 -147
-66 -205 -90 -57 -24 -91 -47 -55 -37 11 3 47 9 80 13 33 5 62 8 65 9 3 1 30
5 60 9 59 8 70 10 170 25 36 5 85 13 110 16 25 3 56 8 70 10 34 6 76 13 130
20 25 3 70 10 100 15 30 5 75 12 100 15 25 3 104 15 175 25 72 11 148 22 170
25 23 3 50 7 60 9 11 2 43 7 70 10 28 4 75 11 105 16 30 5 75 12 100 15 25 3
74 11 110 16 36 6 83 13 105 15 22 3 81 11 130 19 50 8 110 17 135 20 25 3 58
8 73 11 16 3 38 7 50 9 95 11 145 18 162 21 23 5 188 30 255 39 45 6 154 22
200 30 74 12 130 18 168 19 l43 1 58 -135 c172 -398 354 -818 370 -854 11 -23
53 -121 95 -218 41 -98 84 -197 95 -220 10 -24 54 -124 96 -223 43 -99 85
-198 95 -220 10 -22 32 -74 50 -115 18 -41 40 -93 50 -115 10 -22 45 -105 80
-185 34 -80 70 -162 81 -183 10 -21 19 -42 19 -47 0 -5 13 -37 29 -72 16 -35
49 -110 74 -168 25 -58 107 -247 182 -420 75 -173 177 -409 227 -525 134 -312
257 -596 274 -633 9 -19 21 -31 27 -29 15 6 371 147 494 195 51 21 93 41 93
45 0 4 -8 27 -19 50 -10 23 -53 123 -96 222 -42 99 -106 248 -142 330 -36 83
-94 218 -130 300 -35 83 -71 164 -78 180 -7 17 -50 116 -95 220 -45 105 -90
208 -100 230 -10 22 -46 105 -80 185 -34 80 -70 163 -80 185 -10 22 -32 74
-50 115 -18 41 -38 89 -46 105 -7 17 -59 136 -114 265 -56 129 -108 249 -115
265 -8 17 -41 95 -75 175 -34 80 -71 165 -82 190 -40 89 -47 106 -94 215 -25
61 -54 128 -64 150 -10 22 -90 207 -178 410 -88 204 -190 440 -227 525 -37 85
-80 184 -95 220 -15 36 -36 85 -48 110 -11 25 -55 126 -97 225 -122 282 -123
285 -132 284 -4 0 -26 -9 -48 -19z"/>
<path d="M3630 5665 c-114 -19 -140 -23 -205 -30 -33 -4 -62 -9 -65 -10 -3 -2
-33 -7 -65 -10 -33 -4 -69 -9 -80 -11 -27 -5 -221 -34 -265 -40 -19 -2 -46 -6
-60 -9 -14 -2 -45 -7 -70 -10 -25 -3 -56 -8 -70 -10 -14 -2 -43 -7 -65 -10
-23 -3 -50 -7 -60 -9 -11 -2 -45 -7 -75 -11 -30 -4 -64 -9 -75 -11 -11 -2 -40
-6 -65 -9 -25 -3 -56 -8 -70 -10 -14 -3 -38 -7 -55 -9 -16 -2 -48 -7 -70 -10
-22 -4 -56 -9 -75 -11 -19 -3 -44 -6 -55 -9 -11 -2 -45 -7 -75 -11 -30 -4 -64
-9 -74 -11 -11 -2 -40 -6 -65 -9 -25 -3 -57 -7 -71 -10 -13 -3 -42 -7 -65 -10
-22 -3 -51 -8 -65 -10 -47 -9 -85 -14 -136 -20 -28 -3 -61 -8 -75 -10 -13 -3
-42 -8 -64 -11 -22 -2 -51 -7 -65 -9 -14 -2 -45 -7 -70 -10 -25 -3 -85 -13
-135 -20 -49 -8 -112 -17 -140 -20 -27 -4 -57 -8 -65 -10 -8 -2 -35 -7 -60
-10 -134 -17 -160 -22 -168 -29 -4 -5 75 -201 264 -651 34 -82 203 -487 374
-900 171 -412 342 -824 380 -915 38 -91 137 -329 220 -530 84 -201 158 -378
165 -395 7 -16 84 -201 170 -410 87 -209 163 -393 171 -410 7 -16 68 -163 135
-325 67 -162 147 -356 178 -430 l57 -135 1662 -2 c914 0 1662 1 1662 3 0 2 -4
12 -9 22 -6 9 -109 249 -231 532 -122 283 -229 533 -239 555 -10 22 -76 173
-146 335 -70 162 -162 376 -205 475 -43 99 -115 266 -160 370 -45 105 -90 208
-100 230 -10 22 -39 90 -65 150 -26 61 -53 124 -60 140 -22 48 -48 108 -130
300 -43 99 -86 198 -95 220 -29 63 -87 198 -152 350 -33 77 -66 154 -73 170
-18 38 -204 468 -260 600 -44 103 -228 527 -262 606 -11 24 -64 146 -118 272
-54 125 -103 227 -109 226 -6 -1 -45 -7 -86 -14z m-285 -1548 c17 -4 41 -9 55
-11 97 -19 227 -71 305 -121 157 -100 261 -251 316 -456 19 -70 23 -111 23
-244 1 -248 -10 -296 -141 -575 -52 -113 -109 -234 -125 -270 -60 -131 -74
-153 -124 -198 -61 -56 -120 -80 -191 -76 -66 4 -113 24 -271 120 -179 109
-579 377 -602 404 -3 3 -50 41 -105 85 -134 106 -320 294 -378 382 -44 67 -98
192 -112 260 -42 208 -27 352 49 448 42 54 62 70 122 101 176 87 367 56 577
-96 26 -18 47 -37 47 -42 0 -21 17 -4 29 30 19 53 77 137 117 171 49 40 120
74 184 86 58 12 174 13 225 2z"/>
</g>
</svg>
